<svg width="250" height="210" viewBox="0 0 250 210" fill="none" xmlns="http://www.w3.org/2000/svg">
<path d="M249.558 151.104H228.761V151.27H249.558V151.104Z" fill="#EBEBEB"/>
<path d="M175.037 192.55H169.58V192.715H175.037V192.55Z" fill="#EBEBEB"/>
<path d="M228.134 184.603H216.084V184.768H228.134V184.603Z" fill="#EBEBEB"/>
<path d="M27.1196 185.715H0V185.881H27.1196V185.715Z" fill="#EBEBEB"/>
<path d="M36.6886 185.715H32.7139V185.881H36.6886V185.715Z" fill="#EBEBEB"/>
<path d="M108.434 188.51H49.6113V188.675H108.434V188.51Z" fill="#EBEBEB"/>
<path d="M75.4282 14.8469L70.3271 16.0052L71.4254 21.3853L76.5265 20.227L75.4282 14.8469Z" fill="#EBEBEB"/>
<path d="M108.347 50.0894C109.195 33.3582 97.0226 19.0698 81.1589 18.1754C65.2953 17.281 51.7478 30.1192 50.8998 46.8504C50.0517 63.5816 62.2243 77.8699 78.0879 78.7643C93.9516 79.6588 107.499 66.8205 108.347 50.0894Z" fill="#4AB4CB"/>
<path d="M95.3466 69.0345C106.11 59.8749 107.794 43.2473 99.1098 31.8957C90.4252 20.5441 74.6598 18.7672 63.8968 27.9267C53.1338 37.0863 51.449 53.7139 60.1336 65.0655C68.8182 76.4171 84.5837 78.1941 95.3466 69.0345Z" fill="#F0F0F0"/>
<path d="M76.5189 9.74116L67.3296 11.8278L68.5679 17.894L77.7572 15.8075L76.5189 9.74116Z" fill="#44689F"/>
<path d="M82.0051 47.9274C82.1036 48.4244 82.0604 48.941 81.8808 49.412C81.7012 49.883 81.3933 50.2874 80.996 50.574C80.5987 50.8607 80.1298 51.0168 79.6485 51.0227C79.1672 51.0285 78.695 50.8839 78.2915 50.607C77.8881 50.33 77.5714 49.9333 77.3816 49.4668C77.1917 49.0002 77.1372 48.4848 77.2248 47.9856C77.3124 47.4864 77.5382 47.0258 77.8738 46.6618C78.2094 46.2979 78.6397 46.0469 79.1104 45.9407C79.4242 45.8698 79.7482 45.8651 80.0638 45.9267C80.3793 45.9883 80.6803 46.115 80.9492 46.2996C81.2182 46.4842 81.4499 46.7231 81.6311 47.0024C81.8124 47.2818 81.9394 47.5961 82.0051 47.9274Z" fill="#E0E0E0"/>
<path d="M73.5981 27.1454C74.3579 28.8408 75.0109 30.5693 75.6703 32.2977L76.6121 34.9004L77.5038 37.5494C78.1317 39.2977 78.6528 41.0593 79.1866 42.8474C79.7203 44.6355 80.2415 46.3838 80.725 48.1454L78.8412 47.6024C79.9798 46.503 81.1289 45.4169 82.2885 44.3441C83.4501 43.2712 84.6306 42.2183 85.8173 41.1851C87.0041 40.152 88.216 39.1255 89.4341 38.1189C90.6523 37.1123 91.9018 36.1322 93.2016 35.2183C92.2283 36.5428 91.2048 37.7348 90.175 38.9534C89.1453 40.1719 88.0904 41.3639 87.0355 42.5295C85.9806 43.6951 84.8817 44.8673 83.7829 46.0063C82.684 47.1454 81.5726 48.2779 80.4424 49.3838L79.0987 50.7083L78.5524 48.8408C78.0375 47.0659 77.554 45.2845 77.0831 43.4964C76.6121 41.7083 76.16 39.9202 75.7456 38.1123L75.1177 35.4037L74.5588 32.6818C74.1884 30.8209 73.8368 28.9997 73.5981 27.1454Z" fill="#4AB4CB"/>
<path d="M232.936 34.9538L210.331 104.205L119.014 71.0664L141.619 1.80806L144.689 2.92064C144.456 3.13049 144.272 3.39425 144.151 3.69137C144.031 3.9885 143.977 4.31097 143.994 4.63365C144.011 4.95634 144.098 5.27054 144.249 5.55176C144.4 5.83298 144.611 6.07364 144.865 6.25498C145.118 6.43632 145.408 6.55344 145.712 6.59723C146.015 6.64102 146.324 6.61029 146.615 6.50743C146.905 6.40458 147.169 6.23237 147.387 6.00424C147.604 5.7761 147.768 5.4982 147.866 5.19217C147.986 4.84195 148.01 4.46332 147.935 4.09945L151 5.21203C150.728 5.45069 150.526 5.7651 150.416 6.11932C150.244 6.64624 150.278 7.22344 150.51 7.72395C150.742 8.22446 151.153 8.60728 151.653 8.78819C152.152 8.9691 152.699 8.93328 153.174 8.68862C153.649 8.44395 154.012 8.01048 154.183 7.48356C154.301 7.13271 154.322 6.75409 154.246 6.39084L157.31 7.4968C157.039 7.73546 156.836 8.04987 156.726 8.40409C156.641 8.66499 156.606 8.94099 156.622 9.21631C156.638 9.49163 156.706 9.76089 156.821 10.0087C156.935 10.2565 157.095 10.4781 157.291 10.6607C157.487 10.8433 157.716 10.9834 157.963 11.073C158.21 11.1625 158.472 11.1998 158.733 11.1828C158.994 11.1657 159.25 11.0945 159.485 10.9734C159.72 10.8522 159.93 10.6835 160.103 10.4767C160.276 10.2699 160.409 10.0292 160.494 9.76832C160.609 9.41727 160.633 9.03977 160.563 8.67561L163.621 9.78157C163.388 9.99142 163.204 10.2552 163.083 10.5523C162.962 10.8494 162.909 11.1719 162.926 11.4946C162.943 11.8173 163.03 12.1315 163.181 12.4127C163.332 12.6939 163.542 12.9346 163.796 13.1159C164.05 13.2972 164.34 13.4144 164.643 13.4582C164.947 13.5019 165.256 13.4712 165.546 13.3684C165.837 13.2655 166.101 13.0933 166.318 12.8652C166.535 12.637 166.699 12.3591 166.798 12.0531C166.914 11.7021 166.938 11.3245 166.867 10.9604L169.925 12.073C169.656 12.314 169.454 12.6276 169.341 12.9802C169.24 13.2854 169.208 13.6109 169.246 13.9315C169.284 14.2521 169.391 14.5591 169.56 14.8286C169.729 15.0981 169.955 15.3228 170.22 15.4853C170.485 15.6477 170.782 15.7435 171.087 15.7652C171.393 15.7868 171.699 15.7338 171.982 15.6102C172.265 15.4866 172.517 15.2957 172.719 15.0525C172.921 14.8093 173.066 14.5203 173.145 14.2079C173.223 13.8956 173.232 13.5684 173.171 13.2518L176.229 14.3577C175.96 14.5987 175.758 14.9123 175.645 15.265C175.474 15.7919 175.508 16.3691 175.74 16.8696C175.972 17.3702 176.383 17.753 176.882 17.9339C177.382 18.1148 177.929 18.079 178.404 17.8343C178.878 17.5896 179.241 17.1562 179.413 16.6293C179.528 16.2782 179.552 15.9007 179.482 15.5365L182.54 16.6491C182.268 16.8878 182.066 17.2022 181.956 17.5564C181.871 17.8173 181.835 18.0933 181.852 18.3686C181.868 18.644 181.935 18.9132 182.05 19.161C182.165 19.4089 182.325 19.6304 182.521 19.813C182.717 19.9956 182.945 20.1357 183.193 20.2253C183.44 20.3149 183.702 20.3522 183.963 20.3351C184.224 20.318 184.479 20.2469 184.714 20.1257C184.949 20.0046 185.159 19.8358 185.332 19.629C185.505 19.4223 185.638 19.1815 185.723 18.9206C185.839 18.5695 185.862 18.1921 185.792 17.8279L188.85 18.9339C188.617 19.1437 188.433 19.4075 188.313 19.7046C188.192 20.0017 188.138 20.3242 188.155 20.6469C188.172 20.9696 188.26 21.2838 188.411 21.565C188.562 21.8462 188.772 22.0869 189.026 22.2682C189.279 22.4496 189.569 22.5667 189.873 22.6105C190.176 22.6543 190.486 22.6235 190.776 22.5207C191.067 22.4178 191.331 22.2456 191.548 22.0175C191.765 21.7894 191.929 21.5114 192.027 21.2054C192.147 20.8552 192.171 20.4766 192.096 20.1127L195.154 21.2253C194.922 21.4359 194.739 21.7001 194.62 21.9974C194.5 22.2947 194.448 22.6171 194.466 22.9394C194.483 23.2618 194.572 23.5754 194.723 23.856C194.875 24.1365 195.086 24.3764 195.34 24.557C195.593 24.7376 195.883 24.854 196.187 24.8971C196.49 24.9403 196.799 24.909 197.089 24.8058C197.379 24.7026 197.643 24.5302 197.859 24.302C198.076 24.0738 198.24 23.796 198.338 23.4902C198.455 23.1393 198.477 22.7607 198.401 22.3975L201.465 23.5101C201.193 23.7487 200.991 24.0631 200.881 24.4173C200.78 24.7225 200.748 25.048 200.786 25.3686C200.824 25.6892 200.931 25.9962 201.1 26.2657C201.269 26.5352 201.495 26.7599 201.76 26.9224C202.025 27.0848 202.322 27.1806 202.627 27.2023C202.933 27.2239 203.239 27.1709 203.522 27.0473C203.805 26.9237 204.057 26.7328 204.259 26.4896C204.461 26.2464 204.606 25.9574 204.685 25.645C204.763 25.3327 204.772 25.0055 204.711 24.6889L207.769 25.7948C207.5 26.0358 207.298 26.3494 207.185 26.7021C207.1 26.963 207.065 27.239 207.081 27.5143C207.097 27.7896 207.165 28.0589 207.28 28.3067C207.394 28.5546 207.554 28.7761 207.751 28.9587C207.947 29.1413 208.175 29.2814 208.422 29.371C208.67 29.4606 208.931 29.4979 209.192 29.4808C209.453 29.4637 209.709 29.3925 209.944 29.2714C210.179 29.1503 210.389 28.9815 210.562 28.7747C210.735 28.568 210.868 28.3272 210.953 28.0663C211.068 27.7153 211.092 27.3378 211.022 26.9736L214.08 28.0862C213.808 28.3249 213.606 28.6393 213.496 28.9935C213.324 29.5204 213.358 30.0976 213.59 30.5981C213.822 31.0986 214.233 31.4815 214.733 31.6624C215.232 31.8433 215.78 31.8075 216.254 31.5628C216.729 31.3181 217.092 30.8847 217.263 30.3577C217.379 30.0066 217.403 29.6292 217.332 29.265L220.39 30.371C220.121 30.612 219.919 30.9256 219.806 31.2783C219.635 31.8052 219.669 32.3824 219.901 32.8829C220.133 33.3834 220.544 33.7662 221.043 33.9471C221.543 34.128 222.09 34.0922 222.565 33.8476C223.039 33.6029 223.402 33.1694 223.574 32.6425C223.689 32.2914 223.713 31.9139 223.643 31.5498L226.701 32.6624C226.432 32.9009 226.23 33.2123 226.117 33.563C226.032 33.8239 225.996 34.0999 226.013 34.3753C226.029 34.6506 226.096 34.9198 226.211 35.1677C226.326 35.4155 226.486 35.637 226.682 35.8196C226.878 36.0022 227.106 36.1423 227.354 36.2319C227.601 36.3215 227.863 36.3588 228.124 36.3417C228.385 36.3246 228.64 36.2535 228.875 36.1323C229.11 36.0112 229.32 35.8424 229.493 35.6357C229.666 35.4289 229.799 35.1882 229.884 34.9273C230 34.5763 230.024 34.1987 229.953 33.8346L232.936 34.9538Z" fill="#F0F0F0"/>
<path d="M232.937 34.9537L228.334 49.0663L136.979 15.9537L141.582 1.83449L144.652 2.94707C144.419 3.15692 144.235 3.42067 144.115 3.7178C143.994 4.01492 143.94 4.33739 143.957 4.66008C143.974 4.98277 144.061 5.29697 144.212 5.57819C144.363 5.85941 144.574 6.10007 144.828 6.28141C145.081 6.46275 145.371 6.57987 145.675 6.62366C145.978 6.66745 146.288 6.63672 146.578 6.53386C146.869 6.43101 147.133 6.2588 147.35 6.03067C147.567 5.80253 147.731 5.52462 147.829 5.21859C147.949 4.86837 147.973 4.48975 147.898 4.12588L150.963 5.23846C150.691 5.47712 150.489 5.79153 150.379 6.14574C150.207 6.67266 150.241 7.24987 150.473 7.75038C150.705 8.25089 151.116 8.63371 151.616 8.81462C152.115 8.99553 152.663 8.95971 153.137 8.71504C153.612 8.47037 153.975 8.03691 154.146 7.50999C154.264 7.15914 154.285 6.78052 154.209 6.41727L157.273 7.52323C157.002 7.76189 156.799 8.0763 156.689 8.43052C156.604 8.69142 156.569 8.96741 156.585 9.24274C156.601 9.51806 156.669 9.78732 156.784 10.0351C156.898 10.283 157.059 10.5045 157.255 10.6871C157.451 10.8697 157.679 11.0098 157.926 11.0994C158.174 11.189 158.435 11.2263 158.696 11.2092C158.957 11.1921 159.213 11.121 159.448 10.9998C159.683 10.8787 159.893 10.7099 160.066 10.5031C160.239 10.2964 160.372 10.0557 160.457 9.79475C160.572 9.4437 160.596 9.0662 160.526 8.70204L163.584 9.808C163.351 10.0178 163.167 10.2816 163.046 10.5787C162.926 10.8759 162.872 11.1983 162.889 11.521C162.906 11.8437 162.993 12.1579 163.144 12.4391C163.295 12.7203 163.506 12.961 163.759 13.1423C164.013 13.3237 164.303 13.4408 164.606 13.4846C164.91 13.5284 165.219 13.4977 165.51 13.3948C165.8 13.2919 166.064 13.1197 166.281 12.8916C166.498 12.6635 166.662 12.3855 166.761 12.0795C166.877 11.7285 166.901 11.3509 166.83 10.9868L169.888 12.0994C169.619 12.3404 169.417 12.654 169.304 13.0067C169.203 13.3118 169.171 13.6374 169.209 13.9579C169.247 14.2785 169.355 14.5855 169.524 14.855C169.692 15.1245 169.918 15.3493 170.183 15.5117C170.448 15.6742 170.745 15.7699 171.05 15.7916C171.356 15.8133 171.662 15.7602 171.945 15.6366C172.228 15.513 172.48 15.3222 172.682 15.079C172.884 14.8357 173.03 14.5467 173.108 14.2344C173.186 13.922 173.195 13.5948 173.134 13.2782L176.192 14.3842C175.923 14.6251 175.721 14.9388 175.608 15.2914C175.523 15.5523 175.488 15.8283 175.504 16.1037C175.52 16.379 175.588 16.6483 175.703 16.8961C175.817 17.1439 175.978 17.3654 176.174 17.548C176.37 17.7307 176.598 17.8707 176.845 17.9603C177.093 18.0499 177.354 18.0872 177.615 18.0701C177.876 18.053 178.132 17.9819 178.367 17.8607C178.602 17.7396 178.812 17.5708 178.985 17.3641C179.158 17.1573 179.291 16.9166 179.376 16.6557C179.491 16.3046 179.515 15.9271 179.445 15.563L182.503 16.6755C182.231 16.9142 182.029 17.2286 181.919 17.5828C181.747 18.1098 181.781 18.687 182.013 19.1875C182.245 19.688 182.656 20.0708 183.156 20.2517C183.655 20.4326 184.203 20.3968 184.677 20.1521C185.152 19.9075 185.515 19.474 185.686 18.9471C185.802 18.596 185.826 18.2185 185.755 17.8544L188.813 18.9603C188.58 19.1702 188.396 19.4339 188.276 19.731C188.155 20.0282 188.101 20.3506 188.118 20.6733C188.135 20.996 188.223 21.3102 188.374 21.5914C188.525 21.8727 188.735 22.1133 188.989 22.2947C189.242 22.476 189.532 22.5931 189.836 22.6369C190.14 22.6807 190.449 22.65 190.739 22.5471C191.03 22.4443 191.294 22.2721 191.511 22.0439C191.728 21.8158 191.892 21.5379 191.99 21.2318C192.11 20.8816 192.134 20.503 192.06 20.1391L195.117 21.2517C194.885 21.4623 194.703 21.7266 194.583 22.0239C194.464 22.3212 194.411 22.6435 194.429 22.9659C194.447 23.2882 194.535 23.6019 194.686 23.8824C194.838 24.163 195.049 24.4028 195.303 24.5834C195.556 24.764 195.846 24.8804 196.15 24.9235C196.453 24.9667 196.762 24.9354 197.052 24.8322C197.342 24.729 197.606 24.5566 197.822 24.3284C198.039 24.1002 198.203 23.8224 198.301 23.5166C198.419 23.1658 198.44 22.7872 198.364 22.4239L201.428 23.5365C201.156 23.7751 200.954 24.0895 200.844 24.4438C200.743 24.7489 200.711 25.0744 200.749 25.395C200.787 25.7156 200.895 26.0226 201.064 26.2921C201.233 26.5616 201.458 26.7864 201.723 26.9488C201.988 27.1112 202.285 27.207 202.59 27.2287C202.896 27.2504 203.202 27.1973 203.485 27.0737C203.768 26.9501 204.021 26.7593 204.222 26.516C204.424 26.2728 204.57 25.9838 204.648 25.6714C204.726 25.3591 204.735 25.0319 204.674 24.7153L207.732 25.8212C207.463 26.0622 207.261 26.3759 207.148 26.7285C207.063 26.9894 207.028 27.2654 207.044 27.5407C207.06 27.8161 207.128 28.0853 207.243 28.3332C207.358 28.581 207.518 28.8025 207.714 28.9851C207.91 29.1677 208.138 29.3078 208.385 29.3974C208.633 29.487 208.894 29.5243 209.155 29.5072C209.416 29.4901 209.672 29.419 209.907 29.2978C210.142 29.1767 210.352 29.0079 210.525 28.8011C210.698 28.5944 210.831 28.3537 210.916 28.0928C211.032 27.7417 211.055 27.3642 210.985 27.0001L214.043 28.1126C213.771 28.3513 213.569 28.6657 213.459 29.0199C213.287 29.5468 213.321 30.1241 213.553 30.6246C213.785 31.1251 214.196 31.5079 214.696 31.6888C215.195 31.8697 215.743 31.8339 216.217 31.5892C216.692 31.3446 217.055 30.9111 217.226 30.3842C217.342 30.033 217.366 29.6556 217.295 29.2914L220.353 30.3974C220.084 30.6384 219.882 30.952 219.769 31.3047C219.684 31.5656 219.649 31.8416 219.665 32.1169C219.681 32.3922 219.749 32.6615 219.864 32.9093C219.979 33.1572 220.139 33.3787 220.335 33.5613C220.531 33.7439 220.759 33.884 221.006 33.9736C221.254 34.0631 221.515 34.1005 221.776 34.0834C222.037 34.0663 222.293 33.9951 222.528 33.874C222.763 33.7528 222.973 33.5841 223.146 33.3773C223.319 33.1705 223.452 32.9298 223.537 32.6689C223.653 32.3179 223.676 31.9404 223.606 31.5762L226.664 32.6888C226.395 32.9273 226.193 33.2387 226.08 33.5895C225.995 33.8504 225.96 34.1264 225.976 34.4017C225.992 34.677 226.059 34.9463 226.174 35.1941C226.289 35.4419 226.449 35.6635 226.645 35.8461C226.841 36.0287 227.069 36.1688 227.317 36.2583C227.564 36.3479 227.826 36.3852 228.087 36.3681C228.348 36.3511 228.603 36.2799 228.838 36.1588C229.073 36.0376 229.283 35.8688 229.456 35.6621C229.63 35.4553 229.762 35.2146 229.847 34.9537C229.963 34.6027 229.987 34.2251 229.916 33.861L232.937 34.9537Z" fill="#68B1A9"/>
<path d="M174.759 32.8508L164.754 29.2215L161.313 39.7738L171.318 43.4031L174.759 32.8508Z" fill="#FAFAFA"/>
<path d="M186.722 37.1969L176.717 33.5676L173.276 44.1199L183.281 47.7492L186.722 37.1969Z" fill="#FAFAFA"/>
<path d="M198.685 41.5345L188.68 37.9052L185.239 48.4574L195.244 52.0867L198.685 41.5345Z" fill="#FAFAFA"/>
<path d="M210.654 45.8806L200.648 42.2513L197.207 52.8035L207.212 56.4329L210.654 45.8806Z" fill="#FAFAFA"/>
<path d="M222.618 50.2181L212.613 46.5888L209.172 57.1411L219.177 60.7704L222.618 50.2181Z" fill="#FAFAFA"/>
<path d="M146.936 36.1166L136.931 32.4873L133.49 43.0396L143.495 46.6689L146.936 36.1166Z" fill="#FAFAFA"/>
<path d="M158.89 40.4538L148.885 36.8245L145.444 47.3767L155.449 51.0061L158.89 40.4538Z" fill="#FAFAFA"/>
<path d="M170.862 44.7932L160.857 41.1639L157.416 51.7162L167.421 55.3455L170.862 44.7932Z" fill="#FAFAFA"/>
<path d="M182.823 49.1375L172.818 45.5082L169.377 56.0604L179.382 59.6897L182.823 49.1375Z" fill="#FAFAFA"/>
<path d="M194.794 53.4769L184.789 49.8476L181.348 60.3998L191.353 64.0291L194.794 53.4769Z" fill="#FAFAFA"/>
<path d="M206.763 57.823L196.758 54.1937L193.317 64.7459L203.322 68.3752L206.763 57.823Z" fill="#FAFAFA"/>
<path d="M218.727 62.1539L208.722 58.5245L205.281 69.0768L215.286 72.7061L218.727 62.1539Z" fill="#FAFAFA"/>
<path d="M143.038 48.0527L133.033 44.4234L129.592 54.9757L139.597 58.605L143.038 48.0527Z" fill="#FAFAFA"/>
<path d="M155.001 52.3966L144.996 48.7673L141.555 59.3195L151.56 62.9488L155.001 52.3966Z" fill="#FAFAFA"/>
<path d="M166.97 56.7364L156.965 53.1071L153.524 63.6593L163.529 67.2886L166.97 56.7364Z" fill="#FAFAFA"/>
<path d="M178.933 61.0799L168.928 57.4506L165.487 68.0028L175.492 71.6322L178.933 61.0799Z" fill="#FAFAFA"/>
<path d="M190.903 65.4197L180.898 61.7903L177.457 72.3426L187.462 75.9719L190.903 65.4197Z" fill="#FAFAFA"/>
<path d="M202.864 69.7591L192.859 66.1298L189.418 76.682L199.423 80.3113L202.864 69.7591Z" fill="#FAFAFA"/>
<path d="M214.829 74.0966L204.824 70.4673L201.383 81.0195L211.388 84.6489L214.829 74.0966Z" fill="#FAFAFA"/>
<path d="M139.14 59.9929L129.135 56.3636L125.694 66.9159L135.699 70.5452L139.14 59.9929Z" fill="#FAFAFA"/>
<path d="M151.109 64.339L141.104 60.7097L137.662 71.262L147.667 74.8913L151.109 64.339Z" fill="#FAFAFA"/>
<path d="M163.08 68.6788L153.075 65.0495L149.634 75.6017L159.639 79.231L163.08 68.6788Z" fill="#FAFAFA"/>
<path d="M175.037 73.0093L165.032 69.3799L161.591 79.9322L171.596 83.5615L175.037 73.0093Z" fill="#FAFAFA"/>
<path d="M187.006 77.3557L177.001 73.7264L173.56 84.2787L183.565 87.908L187.006 77.3557Z" fill="#FAFAFA"/>
<path d="M198.969 81.6929L188.964 78.0636L185.523 88.6159L195.528 92.2452L198.969 81.6929Z" fill="#FAFAFA"/>
<path d="M179.381 60.6886C179.205 60.6882 179.032 60.636 178.883 60.5377C178.733 60.4394 178.612 60.299 178.534 60.1323L171.972 45.9469C171.907 45.8288 171.866 45.6979 171.851 45.5622C171.836 45.4266 171.848 45.2891 171.886 45.1585C171.923 45.0279 171.986 44.9069 172.07 44.803C172.154 44.6992 172.258 44.6147 172.374 44.5549C172.491 44.4952 172.617 44.4613 172.747 44.4556C172.876 44.4498 173.005 44.4722 173.126 44.5214C173.247 44.5706 173.357 44.6456 173.449 44.7416C173.541 44.8376 173.613 44.9526 173.661 45.0794L180.229 59.2979C180.338 59.5342 180.353 59.8062 180.272 60.0544C180.19 60.3026 180.019 60.5068 179.796 60.6224C179.665 60.6791 179.523 60.7018 179.381 60.6886Z" fill="#971616"/>
<path d="M169.373 57.0595C169.159 57.0605 168.952 56.9848 168.785 56.8451C168.617 56.7053 168.5 56.5097 168.452 56.2903C168.403 56.0709 168.427 55.8407 168.519 55.6376C168.612 55.4344 168.766 55.2703 168.959 55.1721L182.434 48.2516C182.658 48.1357 182.918 48.1187 183.154 48.2044C183.391 48.2901 183.586 48.4714 183.696 48.7085C183.806 48.9456 183.822 49.2191 183.74 49.4687C183.659 49.7184 183.487 49.9237 183.262 50.0397L169.813 56.9602C169.675 57.029 169.525 57.063 169.373 57.0595Z" fill="#971616"/>
<path d="M17.8149 28.0929V32.4902L19.9561 32.7021C20.2453 34.1549 20.7883 35.5383 21.5573 36.7816L20.1822 38.5366L23.1271 41.6425L24.7911 40.1856C25.9603 41.0021 27.2668 41.5753 28.6402 41.8743L28.8411 44.1326H32.9916L33.1925 41.8743C34.5655 41.5741 35.8718 41.0009 37.0416 40.1856L38.7056 41.6425L41.6505 38.5366L40.2879 36.7816C41.0553 35.5454 41.5963 34.1684 41.8828 32.722L44.0303 32.5101V28.1127L41.8828 27.9008C41.5963 26.4544 41.0553 25.0775 40.2879 23.8412L41.6631 22.0862L38.7182 18.9803L37.0542 20.4372C35.8844 19.6219 34.5781 19.0488 33.2051 18.7485L33.0041 16.4836H28.8411L28.6402 18.7485C27.2668 19.0475 25.9603 19.6207 24.7911 20.4372L23.1271 18.9803L20.1822 22.0862L21.5573 23.8412C20.7904 25.0785 20.2475 26.4549 19.9561 27.9008L17.8149 28.0929ZM30.9195 24.3445C32.0372 24.3445 33.1298 24.6941 34.0591 25.349C34.9885 26.0039 35.7128 26.9348 36.1405 28.0239C36.5682 29.113 36.6802 30.3114 36.4621 31.4676C36.2441 32.6238 35.7058 33.6858 34.9155 34.5193C34.1252 35.3529 33.1182 35.9206 32.022 36.1505C30.9257 36.3805 29.7895 36.2625 28.7569 35.8114C27.7242 35.3602 26.8416 34.5963 26.2207 33.6161C25.5997 32.636 25.2683 31.4836 25.2683 30.3048C25.2683 28.724 25.8637 27.208 26.9235 26.0902C27.9833 24.9725 29.4207 24.3445 30.9195 24.3445Z" fill="black"/>
<path d="M116.823 133.543C119.19 133.02 121.441 132.032 123.46 130.629L126.336 133.139L131.422 127.775L129.061 124.748C130.391 122.616 131.329 120.239 131.824 117.741L135.523 117.377V109.794L131.824 109.424C131.329 106.926 130.391 104.549 129.061 102.417L131.441 99.3905L126.355 94.0262L123.479 96.5362C121.46 95.1335 119.209 94.145 116.842 93.6223L116.491 89.7216H109.282L108.937 93.6223C106.568 94.1449 104.315 95.1335 102.293 96.5362L99.4239 94.0262L94.3378 99.3905L96.7176 102.417C95.3876 104.549 94.4503 106.926 93.9548 109.424L90.2563 109.794V117.377L93.9548 117.741C94.4503 120.239 95.3876 122.616 96.7176 124.748L94.3378 127.775L99.4239 133.139L102.293 130.629C104.315 132.032 106.568 133.02 108.937 133.543L109.282 137.443H116.503L116.823 133.543ZM103.147 113.602C103.147 111.572 103.718 109.588 104.788 107.9C105.857 106.211 107.377 104.896 109.156 104.119C110.934 103.342 112.891 103.139 114.779 103.535C116.667 103.931 118.401 104.908 119.762 106.344C121.123 107.78 122.05 109.609 122.426 111.6C122.801 113.591 122.608 115.655 121.872 117.531C121.135 119.406 119.888 121.009 118.287 122.137C116.687 123.265 114.805 123.867 112.88 123.867C110.299 123.867 107.823 122.786 105.998 120.861C104.173 118.936 103.147 116.325 103.147 113.602Z" fill="black"/>
<path d="M36.7583 165.742L37.8508 166.695L39.7911 164.649L38.8806 163.497C39.3884 162.692 39.7464 161.793 39.9355 160.848L41.3483 160.709V157.815L39.9355 157.675C39.7488 156.729 39.3906 155.83 38.8806 155.026L39.7911 153.868L37.8508 151.821L36.7583 152.742C35.9958 152.206 35.1433 151.828 34.2466 151.629L34.1147 150.139H31.377L31.2389 151.629C30.3423 151.829 29.49 152.206 28.7272 152.742L27.6347 151.781L25.6944 153.828L26.5986 154.987C26.0932 155.792 25.7373 156.691 25.55 157.636L24.1372 157.775V160.669L25.55 160.808C25.7396 161.752 26.0953 162.651 26.5986 163.457L25.6944 164.609L27.6347 166.656L28.7272 165.702C29.4916 166.233 30.3435 166.608 31.2389 166.808L31.377 168.298H34.1147L34.2466 166.808C35.1395 166.621 35.9913 166.259 36.7583 165.742ZM29.0098 159.238C29.0098 158.464 29.2275 157.708 29.6352 157.064C30.043 156.42 30.6226 155.919 31.3007 155.622C31.9787 155.326 32.7249 155.249 33.4448 155.4C34.1646 155.551 34.8258 155.923 35.3448 156.471C35.8638 157.018 36.2172 157.716 36.3604 158.475C36.5036 159.234 36.4301 160.021 36.1493 160.736C35.8684 161.451 35.3927 162.063 34.7825 162.493C34.1722 162.923 33.4547 163.152 32.7208 163.152C32.2319 163.155 31.7473 163.056 31.2949 162.86C30.8425 162.665 30.4311 162.377 30.0845 162.013C29.7379 161.649 29.4629 161.217 29.2752 160.741C29.0876 160.265 28.991 159.754 28.991 159.238H29.0098Z" fill="black" fill-opacity="0.6"/>
<path d="M115.248 14.3114L115.876 14.8677L117 13.6823L116.479 13.02C116.778 12.5495 116.991 12.0238 117.107 11.4703L117.923 11.3909V9.71538L117.107 9.63592C116.991 9.08243 116.778 8.55675 116.479 8.08625L117 7.424L115.876 6.22532L115.248 6.78161C114.805 6.46409 114.308 6.23926 113.785 6.11936L113.703 5.25182H112.108L112.033 6.11274C111.508 6.23462 111.01 6.45925 110.564 6.77499L109.936 6.2187L108.818 7.40413L109.339 8.06638C109.04 8.53689 108.827 9.06257 108.711 9.61605L107.895 9.69552V11.371L108.711 11.4505C108.827 12.004 109.04 12.5296 109.339 13.0001L108.818 13.6624L109.936 14.8478L110.564 14.2915C111.008 14.6103 111.507 14.8352 112.033 14.9538L112.108 15.8147H113.697L113.779 14.9538C114.303 14.8408 114.802 14.6227 115.248 14.3114ZM110.758 10.5432C110.758 10.0939 110.885 9.65476 111.121 9.28121C111.358 8.90766 111.694 8.61651 112.088 8.44459C112.481 8.27266 112.914 8.22768 113.332 8.31533C113.75 8.40297 114.134 8.61931 114.435 8.93699C114.736 9.25467 114.941 9.65941 115.024 10.1C115.108 10.5407 115.065 10.9974 114.902 11.4125C114.739 11.8275 114.463 12.1823 114.109 12.4319C113.754 12.6815 113.338 12.8147 112.912 12.8147C112.627 12.8191 112.343 12.7636 112.078 12.6514C111.813 12.5392 111.572 12.3726 111.369 12.1612C111.165 11.9499 111.004 11.698 110.894 11.4202C110.784 11.1424 110.727 10.8443 110.727 10.5432H110.758Z" fill="black"/>
<path d="M211.495 9.03975L212.123 9.59604L213.247 8.41062L212.719 7.74836C213.021 7.27941 213.235 6.75316 213.347 6.19869L214.17 6.11922V4.44372L213.347 4.35763C213.233 3.80561 213.02 3.28177 212.719 2.81458L213.247 2.15232L212.123 0.966889L211.495 1.52318C211.048 1.20744 210.55 0.982804 210.025 0.860931L209.95 0H208.361L208.286 0.860931C207.761 0.982804 207.263 1.20744 206.817 1.52318L206.189 0.966889L205.04 2.13908L205.567 2.80133C205.266 3.26853 205.053 3.79237 204.939 4.34438L204.117 4.43047V6.10597L204.939 6.18545C205.052 6.73992 205.265 7.26616 205.567 7.73511L205.04 8.39737L206.164 9.5828L206.792 9.02651C207.236 9.34525 207.735 9.57014 208.261 9.68876L208.336 10.5497H209.925L210 9.68876C210.534 9.57746 211.042 9.35697 211.495 9.03975ZM207.005 5.27153C207.005 4.82227 207.131 4.38309 207.368 4.00954C207.605 3.63599 207.941 3.34484 208.335 3.17291C208.728 3.00099 209.161 2.95601 209.579 3.04365C209.997 3.1313 210.381 3.34764 210.682 3.66532C210.983 3.983 211.188 4.38775 211.271 4.82838C211.354 5.26901 211.312 5.72574 211.149 6.14081C210.986 6.55588 210.71 6.91064 210.355 7.16024C210.001 7.40984 209.585 7.54306 209.159 7.54306C208.876 7.54394 208.595 7.48578 208.334 7.37193C208.072 7.25809 207.834 7.0908 207.634 6.8797C207.434 6.66859 207.275 6.41783 207.167 6.14184C207.059 5.86585 207.004 5.57008 207.005 5.27153Z" fill="black"/>
<path d="M232.133 115.013L233.225 115.967L235.166 113.927L234.261 112.768C234.765 111.962 235.12 111.063 235.31 110.119L236.723 109.98V107.086L235.31 106.947C235.122 106.002 234.766 105.103 234.261 104.298L235.166 103.139L233.225 101.093L232.133 102.053C231.367 101.523 230.516 101.145 229.621 100.94L229.483 99.4502H226.745L226.613 100.94C225.718 101.145 224.867 101.522 224.102 102.053L223.009 101.093L221.069 103.139L221.979 104.298C221.471 105.102 221.112 106.001 220.925 106.947L219.512 107.086V109.98L220.925 110.119C221.114 111.065 221.472 111.964 221.979 112.768L221.069 113.927L223.009 115.967L224.102 115.013C224.867 115.544 225.718 115.921 226.613 116.126L226.745 117.609H229.483L229.621 116.126C230.516 115.921 231.367 115.543 232.133 115.013ZM224.384 108.51C224.384 107.736 224.602 106.979 225.01 106.335C225.417 105.692 225.997 105.19 226.675 104.894C227.353 104.598 228.099 104.52 228.819 104.671C229.539 104.822 230.2 105.195 230.719 105.742C231.238 106.29 231.592 106.987 231.735 107.746C231.878 108.505 231.805 109.292 231.524 110.008C231.243 110.723 230.767 111.334 230.157 111.764C229.547 112.194 228.829 112.424 228.095 112.424C227.112 112.422 226.169 112.009 225.473 111.275C224.777 110.542 224.386 109.547 224.384 108.51Z" fill="black"/>
<path d="M156.828 177.741L158.561 179.251L161.625 176.02L160.194 174.192C160.995 172.906 161.56 171.473 161.858 169.967L164.087 169.748V165.179L161.858 164.953C161.559 163.45 160.994 162.019 160.194 160.735L161.625 158.907L158.574 155.675L156.841 157.185C155.623 156.341 154.267 155.746 152.841 155.43L152.627 153.079H148.295L148.088 155.43C146.659 155.744 145.3 156.34 144.081 157.185L142.348 155.675L139.284 158.907L140.716 160.735C139.915 162.019 139.351 163.45 139.052 164.953L136.823 165.179V169.748L139.052 169.967C139.35 171.473 139.914 172.906 140.716 174.192L139.284 176.02L142.348 179.251L144.081 177.741C145.3 178.587 146.659 179.182 148.088 179.496L148.295 181.847H152.627L152.841 179.496C154.262 179.179 155.615 178.584 156.828 177.741ZM144.584 167.463C144.583 166.238 144.926 165.04 145.571 164.021C146.215 163.001 147.132 162.207 148.205 161.737C149.278 161.268 150.459 161.145 151.599 161.383C152.738 161.622 153.785 162.212 154.606 163.078C155.428 163.945 155.987 165.049 156.213 166.25C156.44 167.452 156.323 168.698 155.878 169.829C155.432 170.961 154.679 171.928 153.713 172.608C152.746 173.288 151.61 173.65 150.448 173.649C148.894 173.647 147.403 172.995 146.303 171.835C145.204 170.675 144.585 169.103 144.584 167.463Z" fill="black" fill-opacity="0.7"/>
<path d="M124.037 210C191.275 210 245.783 206.643 245.783 202.503C245.783 198.363 191.275 195.006 124.037 195.006C56.7986 195.006 2.29102 198.363 2.29102 202.503C2.29102 206.643 56.7986 210 124.037 210Z" fill="black"/>
<path d="M55.5197 54.9472C35.213 58.6359 19.3519 65.2584 20.0803 69.7551L20.4256 71.8346C21.154 76.3048 38.2144 76.934 58.5148 73.2253C78.8152 69.5167 94.6889 62.8942 93.9542 58.424L93.6151 56.3445C92.8805 51.8677 75.8264 51.2452 55.5197 54.9472Z" fill="#68B1A9"/>
<path opacity="0.2" d="M58.5161 73.2247C78.8209 69.5218 94.6867 62.8942 93.9535 58.4216C93.2202 53.949 76.1655 53.325 55.8607 57.0279C35.556 60.7308 19.6901 67.3584 20.4234 71.831C21.1566 76.3036 38.2113 76.9276 58.5161 73.2247Z" fill="#68B1A9" fill-opacity="0.43"/>
<path d="M56.5879 61.4504C38.3785 64.7616 24.2002 70.7219 24.8595 74.6954L25.4246 78.159C26.0525 82.1656 41.3548 82.7219 59.5328 79.404C77.7109 76.0861 91.9206 70.1325 91.2613 66.159L90.6962 62.702C90.0368 58.6954 74.766 58.1325 56.5879 61.4504Z" fill="#67B1A9" fill-opacity="0.66"/>
<path opacity="0.2" d="M59.5281 79.4166C77.7074 76.1014 91.9125 70.1678 91.256 66.1637C90.5996 62.1597 75.3302 61.6013 57.1509 64.9166C38.9716 68.2319 24.7665 74.1654 25.423 78.1694C26.0794 82.1735 41.3488 82.7319 59.5281 79.4166Z" fill="white"/>
<path d="M75.5698 114.027C74.7795 113.59 74.0951 112.968 73.5696 112.207C73.0441 111.447 72.6915 110.569 72.5391 109.642C72.3867 108.715 72.4387 107.763 72.6909 106.861C72.9432 105.958 73.3889 105.129 73.9937 104.437C81.3591 95.9804 90.2755 82.5168 88.015 68.6758C87.5252 65.7155 73.9874 65.7089 57.7747 68.6758C41.562 71.6427 28.8091 76.4374 29.2926 79.3976C31.5594 93.2188 44.2432 102.742 53.8754 108.1C54.6656 108.536 55.35 109.159 55.8756 109.919C56.4011 110.68 56.7537 111.557 56.9061 112.484C57.0584 113.411 57.0065 114.363 56.7543 115.266C56.502 116.168 56.0562 116.997 55.4515 117.689C48.0798 126.139 39.1634 139.603 41.4302 153.451C41.9199 156.418 55.4577 156.424 71.6704 153.451C87.8831 150.477 100.636 145.689 100.178 142.742C97.8858 128.901 85.1957 119.378 75.5698 114.027Z" fill="#407BFF"/>
<path opacity="0.8" d="M75.3017 114.277C74.5115 113.84 73.8271 113.217 73.3015 112.457C72.776 111.697 72.4234 110.819 72.271 109.892C72.1187 108.965 72.1706 108.013 72.4228 107.111C72.6751 106.208 73.1209 105.379 73.7257 104.687C81.0911 96.2302 90.0074 82.7666 87.7469 68.9255C87.2572 65.9653 73.7194 65.9586 57.5067 68.9255C41.294 71.8924 28.541 76.6871 29.0245 79.6474C31.2913 93.4686 43.9751 102.992 53.6073 108.349C54.3976 108.786 55.082 109.409 55.6075 110.169C56.133 110.929 56.4856 111.807 56.638 112.734C56.7904 113.661 56.7384 114.613 56.4862 115.515C56.2339 116.418 55.7882 117.247 55.1834 117.939C47.8117 126.389 38.8953 139.853 41.1621 153.7C41.6519 156.667 55.1897 156.674 71.4024 153.7C87.6151 150.727 100.368 145.939 99.9096 142.992C97.6177 129.151 84.9276 119.628 75.3017 114.277Z" fill="#4AB4CB"/>
<path d="M98.7085 143.517C98.9973 146.623 46.7675 157.344 43.2952 152.583C42.9444 152.053 42.725 151.439 42.6569 150.797C42.5889 150.155 42.6745 149.505 42.9058 148.907C43.2612 147.806 43.7874 146.774 44.4631 145.854C46.0768 143.55 49.6371 142.543 52.0483 141.616C53.6746 140.987 55.3134 140.411 56.9523 139.815C58.7104 139.152 60.5188 139.616 62.0446 138.205C62.9614 137.364 63.6458 136.113 64.82 135.808C65.6928 135.583 66.6284 135.947 67.4886 135.702C68.6063 135.384 69.4038 134.113 70.5591 134.093C71.1322 134.165 71.695 134.31 72.2357 134.523C73.2403 134.748 74.2701 134.397 75.2999 134.298C76.3139 134.249 77.3297 134.327 78.3264 134.53C81.4415 135.157 84.5853 135.615 87.7451 135.901C90.0747 136.033 92.6554 135.973 94.9284 136.649C95.9218 137.042 96.7439 137.805 97.2391 138.795C98.0491 140.237 98.5505 141.849 98.7085 143.517Z" fill="#263238"/>
<path opacity="0.2" d="M97.2578 138.769C95.8136 137.391 93.145 137.484 92.3789 137.543C91.6129 137.603 91.3429 136.914 90.7652 136.689C90.1875 136.464 86.7717 136.927 86.7717 136.927C86.7717 136.927 88.0275 137.186 88.2912 137.623C88.555 138.06 89.9866 137.557 90.175 137.497C89.9803 137.616 88.2347 138.583 87.4122 138C86.5896 137.418 86.2505 138.504 85.5975 138.782C84.9445 139.06 82.8849 138.782 82.5521 138.669C81.5692 138.61 80.5839 138.61 79.6009 138.669C80.11 138.323 80.6841 138.097 81.2837 138.007C81.8363 138.073 84.0403 136.848 83.5882 136.934C83.1361 137.02 82.1063 136.384 81.3026 136.119C80.3273 136.045 79.3471 136.112 78.389 136.318C79.3647 136.303 80.3368 136.445 81.2712 136.742C80.6297 136.903 80.0001 137.114 79.3874 137.371C78.8269 137.562 78.2432 137.667 77.6544 137.682C77.1805 137.864 76.7722 138.198 76.4865 138.636C75.7686 138.816 75.041 138.948 74.3076 139.033C73.5842 139.101 72.8553 139.011 72.1664 138.769L74.1506 138.106L73.4725 137.901C73.0067 137.737 72.5274 137.62 72.0408 137.55C71.2434 137.411 70.9043 138.212 70.7097 138.404C70.515 138.596 68.7694 138.404 68.2796 138.278C67.7899 138.153 64.1668 139.702 64.1668 139.702L66.4336 139.292C67.0215 139.555 67.6481 139.71 68.2859 139.749C69.7992 139.961 70.019 139.431 70.6532 139.477C71.2874 139.523 73.3909 140.139 73.3909 140.139L72.5746 140.371C71.8539 140.477 71.1227 140.477 70.402 140.371C69.1462 140.192 68.468 140.888 68.0913 140.961C67.122 141.19 66.1375 141.341 65.1464 141.411C64.7382 141.318 63.6645 141.848 63.0743 142.484C62.7385 142.836 62.3171 143.085 61.8563 143.202C61.3956 143.318 60.9132 143.299 60.4621 143.146C59.3193 142.835 57.3916 144.305 57.3916 144.305C57.3916 144.305 58.4026 142.894 58.93 142.795C59.7494 142.457 60.5376 142.04 61.2847 141.55C61.0027 141.546 60.721 141.571 60.4433 141.623C60.162 141.647 59.8789 141.612 59.6105 141.52C59.342 141.428 59.0937 141.281 58.8798 141.086C58.2519 140.629 57.624 140.987 56.7009 141.484C55.7779 141.98 54.7858 142.57 53.8125 141.848C52.8393 141.126 49.8567 143.795 49.8567 143.795C50.5356 143.622 51.1978 143.383 51.8346 143.08C52.1109 142.841 52.3056 143.08 53.1846 143.272C54.0637 143.464 54.3525 142.815 54.7858 142.57C55.2191 142.325 56.5188 142.735 56.5188 142.735C56.2117 142.889 55.8719 142.955 55.533 142.927C55.0558 142.848 54.2772 144.298 54.026 144.139C53.7749 143.98 51.9476 144.232 51.1627 144.663C50.3779 145.093 49.2225 146.53 48.0609 146.086C47.075 145.709 44.8522 148.894 42.8994 148.934C43.2548 147.833 43.781 146.801 44.4566 145.881C46.0704 143.576 49.6306 142.57 52.0418 141.643C53.6681 141.014 55.307 140.437 56.9458 139.841C58.704 139.179 60.5124 139.643 62.0382 138.232C62.9549 137.391 63.6394 136.139 64.8136 135.835C65.6864 135.61 66.622 135.974 67.4822 135.729C68.5999 135.411 69.3973 134.139 70.5527 134.12C71.1258 134.192 71.6886 134.337 72.2292 134.55C73.2339 134.775 74.2637 134.424 75.2934 134.325C76.3074 134.276 77.3233 134.354 78.32 134.557C81.4351 135.184 84.5788 135.642 87.7387 135.927C90.0682 136.06 92.649 136 94.922 136.676C95.9163 137.05 96.747 137.794 97.2578 138.769Z" fill="white"/>
<path d="M69.9117 142.742C51.7022 146.053 37.5239 152.013 38.177 155.987L38.7484 159.45C39.3763 163.424 54.6722 164.013 72.8566 160.695C91.0409 157.378 105.244 151.424 104.585 147.45L104.02 143.993C103.361 139.954 88.0897 139.391 69.9117 142.742Z" fill="#68B1A9"/>
<path d="M70.9225 148.901C50.6221 152.603 34.7547 159.232 35.4894 163.709L35.8284 165.782C36.5631 170.259 53.6172 170.881 73.9239 167.179C94.2306 163.477 110.092 156.848 109.357 152.371L109.018 150.298C108.283 145.822 91.2292 145.199 70.9225 148.901Z" fill="#67B1A9"/>
<path opacity="0.2" d="M47.5328 169.55L46.0635 169.477L47.5328 169.55Z" fill="white"/>
<path opacity="0.2" d="M39.71 168.57C39.9109 168.629 40.1244 168.682 40.3379 168.735C40.1244 168.656 39.8983 168.603 39.71 168.57Z" fill="white"/>
<path opacity="0.2" d="M70.9225 148.901C50.6221 152.603 34.7547 159.232 35.4894 163.709L35.8284 165.782C35.9241 166.163 36.0981 166.517 36.3379 166.819C36.5777 167.121 36.8775 167.364 37.2161 167.53C36.8775 167.364 36.5777 167.121 36.3379 166.819C36.0981 166.517 35.9241 166.163 35.8284 165.782C35.0938 161.285 50.9611 154.663 71.2929 150.98C91.6248 147.298 108.647 147.901 109.382 152.371L109.043 150.298C108.283 145.821 91.2292 145.199 70.9225 148.901Z" fill="white"/>
<path d="M67.8207 108.491C67.4251 111.802 66.276 116.815 65.7611 120.159C65.2462 123.504 66.7909 128.689 67.2493 130.259C67.7076 131.828 70.8033 131.583 70.6777 132.835C70.5521 134.087 75.2991 134.298 75.2991 134.298C75.2991 134.298 53.0584 143.57 50.8105 142.981C48.5626 142.391 54.9798 137.762 56.2106 137.457C57.4413 137.153 58.0943 136.351 58.9231 134.497C59.752 132.643 60.606 132.974 61.4725 131.113C62.245 129.724 62.941 128.289 63.5571 126.815C64.543 124.232 65.3969 116.292 64.3609 115.623C63.3248 114.954 64.2667 121.709 63.375 121.934C62.4834 122.159 64.5367 115.259 61.8304 111.775C59.1241 108.292 67.8207 108.491 67.8207 108.491Z" fill="#263238"/>
<path opacity="0.2" d="M75.2927 134.298C75.2927 134.298 53.0583 143.57 50.8041 142.98C48.7508 142.444 54.0002 138.477 55.8274 137.609C55.9467 138.974 59.4316 137.576 60.8131 136.768C62.1945 135.96 62.3012 136.55 62.8098 136.311C63.3184 136.073 67.1738 133.04 66.7719 133.166C66.3701 133.292 63.5005 135.523 62.8098 134.795C62.1191 134.066 60.9763 135.457 60.1224 135.881C59.3814 136.259 59.193 135.802 58.5777 135.219C58.697 134.987 58.81 134.735 58.9293 134.47C59.7393 132.616 60.6058 132.947 61.441 131.086C62.2297 129.719 62.9405 128.304 63.5696 126.848C64.5617 124.265 65.4157 116.325 64.3859 115.656C63.3561 114.987 64.2854 121.742 63.4 121.96C62.5147 122.179 64.5491 115.292 61.8491 111.808C59.1491 108.325 67.8206 108.497 67.8206 108.497C67.425 111.808 66.2759 116.821 65.761 120.166C65.4219 122.358 65.9682 125.338 66.5145 127.576C66.3701 128.119 66.1692 128.616 65.9305 128.696C65.3591 128.874 64.9573 130.934 64.2101 130.994C63.4628 131.053 64.0908 132.504 65.1268 131.901C65.8112 131.504 66.8912 131.239 67.6385 130.894C68.6054 131.802 70.778 131.788 70.665 132.841C70.5583 134.093 75.2927 134.298 75.2927 134.298Z" fill="white"/>
<path d="M79.8837 93.3511L79.62 93.808C78.7497 95.4419 77.8025 97.0289 76.7818 98.563C75.79 100.194 74.6479 101.718 73.3722 103.113C72.1667 104.338 70.9359 104.914 70.2327 106.378C70.0536 106.741 69.9166 107.125 69.8245 107.523C69.5608 108.629 69.4792 109.96 68.5687 110.583C68.3498 110.7 68.1399 110.835 67.9408 110.987C67.4824 111.404 67.5075 112.133 67.3882 112.755C67.2689 113.378 66.6975 114.08 66.1324 113.775C65.5673 113.47 65.5422 112.709 65.0336 112.735C64.9064 112.764 64.7823 112.806 64.6631 112.861C64.1482 113 63.671 112.576 63.2754 112.199C62.8798 111.821 62.3147 111.477 61.8626 111.768C60.4938 110.443 58.9902 109.281 57.3793 108.305C56.0732 107.47 54.717 106.722 53.2916 105.914C50.152 104.113 46.5101 102.338 44.3124 100.51C43.5989 99.9623 43.0021 99.2629 42.5606 98.457C42.4315 98.1893 42.3466 97.9004 42.3094 97.6027C41.9452 94.3312 51.546 93.3577 54.8677 90.9206C58.1893 88.4835 63.3759 90.0464 65.5422 89.5365C67.7085 89.0266 70.1762 89.7484 72.4806 89.5696C74.785 89.3908 76.2041 88.6888 77.5479 89.7219C78.8916 90.7551 80.3798 90.4438 80.6874 91.2319C80.8381 91.7484 80.273 92.7021 79.8837 93.3511Z" fill="#263238"/>
<path opacity="0.2" d="M76.9434 92.3183C74.9592 91.9144 79.0093 91.8349 78.7016 91.5899C78.3939 91.3448 77.4018 90.5501 75.1916 90.6296C72.9813 90.7091 71.1353 90.5501 70.6643 90.6296C70.1934 90.7091 72.2027 91.3515 72.2027 91.3515H67.0224C65.3396 91.3515 68.1715 90.6296 68.1715 90.6296H59.4498C59.6821 90.6296 61.3649 91.676 60.3666 91.676C59.3682 91.676 58.3007 92.2389 56.9256 92.8018C55.8344 93.2678 54.7114 93.6463 53.5663 93.9342C53.3402 93.9342 56.7058 91.2852 56.913 91.113C56.7058 91.2058 53.899 92.4375 52.7248 92.8018C51.5507 93.166 48.3295 94.3382 48.0532 94.4177C48.6407 94.4581 49.2301 94.4581 49.8176 94.4177C49.8176 94.4177 47.4441 95.7091 46.226 95.868C45.3092 95.9872 43.0864 96.7819 42.5464 98.464C42.988 99.2699 43.5847 99.9693 44.2983 100.517C46.496 102.345 50.1253 104.12 53.2774 105.921C54.7028 106.729 56.0591 107.477 57.3651 108.312C58.976 109.288 60.4796 110.45 61.8484 111.775C62.3005 111.484 62.8719 111.842 63.2612 112.206C63.6505 112.57 64.134 113 64.6489 112.868C64.7681 112.813 64.8922 112.771 65.0194 112.742C65.528 112.742 65.6473 113.537 66.1182 113.782C66.5892 114.027 67.2171 113.385 67.3741 112.762C67.531 112.14 67.4682 111.438 67.9266 110.994C68.1257 110.842 68.3356 110.707 68.5545 110.59C69.4713 109.967 69.5529 108.636 69.8104 107.53C69.9024 107.132 70.0394 106.748 70.2185 106.385C70.9406 104.921 72.1713 104.345 73.3581 103.12C74.6338 101.725 75.7758 100.201 76.7676 98.57C77.7883 97.0359 78.7355 95.449 79.6058 93.815C78.9151 92.5501 78.9465 92.7223 76.9434 92.3183ZM48.543 100.868C47.8774 100.789 50.0311 100.08 50.0311 100.08C49.8754 100.339 49.6561 100.55 49.3963 100.689C49.1365 100.827 48.846 100.889 48.5555 100.868H48.543ZM48.9448 98.1462C48.9448 98.1462 50.0311 97.2389 50.4895 97.2985C50.9306 97.3305 51.3733 97.3305 51.8144 97.2985C51.8144 97.2985 50.1065 98.5104 48.9574 98.1462H48.9448ZM57.6037 105.226C56.8188 105.067 58.4326 104.563 58.8219 104.676C59.2112 104.789 58.533 105.404 57.6163 105.226H57.6037ZM61.478 95.9541C61.478 95.9541 58.15 96.9872 58.8219 96.9872H60.0777C59.8454 96.9872 56.4044 97.7753 56.2349 97.7422C56.8883 97.2842 57.5724 96.8769 58.2819 96.5236C58.2819 96.5236 58.037 96.1991 58.0496 96.0799C58.0621 95.9607 58.8282 95.7157 58.8282 95.7157C59.0982 95.4707 60.3038 95.113 60.7621 95.4111C61.2929 95.6251 61.858 95.7285 62.4261 95.7157L61.478 95.9541ZM62.8782 103.153C61.9489 102.259 64.7054 103.153 64.7054 103.153C64.7054 103.153 63.5187 103.769 62.8908 103.166L62.8782 103.153ZM64.3852 93.5501C65.641 92.6428 65.955 93.5501 65.955 93.5501C65.955 93.5501 63.977 93.8415 64.3852 93.5501ZM68.7366 97.0601L67.7696 96.5369C68.1736 96.2795 68.6217 96.1085 69.0883 96.0336C69.7154 96.0062 70.3355 96.1819 70.8653 96.5369C71.2043 96.7554 69.0694 97.2389 68.7303 97.0468L68.7366 97.0601ZM71.2106 101.51C71.2106 101.51 69.6659 101.471 69.5152 101.51C70.0661 101.26 70.6326 101.05 71.2106 100.881V101.51ZM73.6092 94.9607C73.6092 94.9607 74.7081 94.7091 75.223 95.3117C75.9137 96.1197 73.6029 94.9607 73.6029 94.9607H73.6092Z" fill="white"/>
<path d="M167.702 188.357L172.763 189.967H200.436L201.063 178.271L195.695 175.854C195.695 175.854 196.693 166.814 198.294 157.126L201.968 157.006L209.766 124.556L205.333 122.536L208.542 111.788H213.358L218.494 96.715C218.494 96.715 200.015 88.9601 189.039 87.9336L179.181 89.6753L178.496 103.212L170.465 104.331L168.889 118.9L174.597 119.934L170.924 150.927L162.679 153.371L161.241 174.715L168.418 176.271L167.702 188.357Z" fill="#68B1A9" fill-opacity="0.85"/>
<path opacity="0.4" d="M201.051 178.265L173.674 179.073L168.424 176.285L174.44 177.463L195.695 175.848L201.051 178.265Z" fill="white"/>
<path opacity="0.4" d="M198.294 157.119L178.495 157.185L162.641 153.914L162.678 153.391L170.929 150.947L179.645 156.457L198.294 157.119Z" fill="white"/>
<path opacity="0.2" d="M205.333 122.543L180.907 120.02L174.596 119.954L168.889 118.92L180.555 117.51L205.333 122.543Z" fill="black"/>
<path opacity="0.2" d="M213.358 111.795H208.542L189.271 102.51L178.496 103.212L189.861 101.662L213.358 111.795Z" fill="black"/>
<path opacity="0.2" d="M180.555 117.51L183.695 103.212L170.471 104.331L168.889 118.92L180.555 117.51Z" fill="white"/>
<path opacity="0.2" d="M174.596 119.953L186.557 120.602L179.644 156.457L170.929 150.947L174.596 119.953Z" fill="white"/>
<path opacity="0.2" d="M162.641 153.914L178.496 157.185L175.294 177.397L161.241 174.735L162.641 153.914Z" fill="white"/>
<path opacity="0.2" d="M173.674 179.073L172.757 189.967L167.696 188.357L168.425 176.291L173.674 179.073Z" fill="white"/>
<path d="M163.847 158.43L177.768 161.775L194.169 161.013L178.496 164.722L163.847 158.43Z" fill="#68B1A9"/>
<path d="M168.21 179.808L173.334 183.125H185.717L170.684 184.397L165.648 180.768L168.21 179.808Z" fill="#68B1A9"/>
<path d="M178.746 186.357H200.629L203.153 188.358L178.746 186.357Z" fill="#68B1A9"/>
<path d="M174.251 167.099L161.994 163.483L159.803 164.722L174.251 167.099Z" fill="#68B1A9"/>
<path d="M177.918 172.179L196.341 170.516L198.294 171.344L177.918 172.179Z" fill="#68B1A9"/>
<path d="M183.694 150.947L203.599 150.192L205.332 151.735L183.694 150.947Z" fill="#68B1A9"/>
<path d="M198.294 146.536L181.937 144.576L171.84 140.609H168.424L180.468 145.934L198.294 146.536Z" fill="#68B1A9"/>
<path d="M175.683 131.053L183.94 134.185L209.691 136.377L207.368 134.556L183.695 132.987L175.683 131.053Z" fill="#68B1A9"/>
<path d="M178.496 112.914L167.024 113.516L169.869 114.967L178.496 112.914Z" fill="#68B1A9"/>
<path d="M173.673 107.953L182.395 106.728L204.874 114.967L182.275 108.801L173.673 107.953Z" fill="#68B1A9"/>
<path d="M201.547 103.212L188.128 95.5694L174.823 99.9667L178.747 101.079L189.861 99.3906L201.547 103.212Z" fill="#68B1A9"/>
<path d="M197.414 97.9138L217.601 106.728H215.084L197.414 97.9138Z" fill="#68B1A9"/>
<path d="M190.997 91.2582L201.087 92.4701L216.785 101.662C216.785 101.662 196.497 92.3509 190.997 91.2582Z" fill="#68B1A9"/>
<path d="M174.019 123.921L179.004 125.245L171.959 124.583L174.019 123.921Z" fill="#68B1A9"/>
<path opacity="0.1" d="M177.918 127.304L184.738 129.119L203.901 131.053L184.738 130.066L177.918 127.304Z" fill="black"/>
<path opacity="0.1" d="M175.683 121.98L186.559 122.543L206.934 126.218L185.924 123.92L175.683 121.98Z" fill="black"/>
<path opacity="0.1" d="M172.763 115.569L181.297 114.152L202.922 119.443L181.114 114.967L172.763 115.569Z" fill="black"/>
<path opacity="0.1" d="M174.823 111.066L182.019 110.848L203.901 116.795L181.811 111.795L174.823 111.066Z" fill="black"/>
<path opacity="0.1" d="M170.208 106.728L181.134 105.41L170.208 107.589V106.728Z" fill="black"/>
<path opacity="0.1" d="M169.869 109.874H173.674L169.869 110.848V109.874Z" fill="black"/>
<path opacity="0.1" d="M179.004 93.1258L189.239 91.2582L202.921 96.4635L189.364 92.4701L179.004 93.8609V93.1258Z" fill="black"/>
<path opacity="0.1" d="M214.287 109.06L198.677 103.921L213.847 110.358L214.287 109.06Z" fill="black"/>
<path opacity="0.1" d="M187.11 94.4037L189.395 93.8607L214.286 102.318L189.502 94.7282L187.11 94.4037Z" fill="black"/>
<path opacity="0.1" d="M218.086 97.9138L209.157 94.5628L217.602 98.7614L218.086 97.9138Z" fill="black"/>
<path opacity="0.1" d="M173.673 134.801L183.223 137.881L204.874 139.722L183.022 138.947L173.673 134.801Z" fill="black"/>
<path opacity="0.1" d="M171.614 144.318L181.227 148.232L202.922 148.755H181.127L171.614 144.318Z" fill="black"/>
<path opacity="0.1" d="M198.985 154.881L180.468 152.708L172.763 149.397L180.135 153.914L198.985 154.881Z" fill="black"/>
<path opacity="0.1" d="M205.426 142.609C205.251 142.543 190.495 142.139 190.495 142.139L205.194 143.576L205.426 142.609Z" fill="black"/>
<path opacity="0.1" d="M162.365 155.45L178.195 159.092H189.271L178.076 159.808L162.642 156.457L162.365 155.45Z" fill="black"/>
<path opacity="0.1" d="M197.251 163.841C197.251 163.874 181.861 165.656 181.861 165.656L197.12 164.748L197.251 163.841Z" fill="black"/>
<path opacity="0.1" d="M165.649 162.702C165.442 162.596 175.206 164.748 175.206 164.748C175.206 164.748 169.127 164.536 165.649 162.702Z" fill="black"/>
<path opacity="0.1" d="M161.756 167.099L175.206 170.517L161.756 168.192V167.099Z" fill="black"/>
<path opacity="0.1" d="M164.273 172.179L175.682 174.92L192.686 174.556L175.682 175.847L164.273 172.179Z" fill="black"/>
<path opacity="0.1" d="M179.72 168.808H191.644L181.855 169.318L179.72 168.808Z" fill="black"/>
<path opacity="0.1" d="M169.875 179.073L173.542 180.762C173.542 180.762 193.044 180.596 192.693 180.762C192.341 180.927 173.466 181.656 173.466 181.656L169.875 179.073Z" fill="black"/>
<path opacity="0.1" d="M198.294 184.397C198.294 184.397 180.084 184.881 180.467 184.881H195.537L198.294 184.397Z" fill="black"/>
<path opacity="0.1" d="M201.05 180.364C201.05 180.364 198.061 180.046 198.294 180.364C198.526 180.682 200.899 181.099 200.899 181.099L201.05 180.364Z" fill="black"/>
<path opacity="0.1" d="M169.869 186.357L173.008 187.046L189.868 188.358L172.933 187.934L169.869 186.357Z" fill="black"/>
<path d="M137.546 48.3839C141.589 50.278 149.2 50.0197 152.12 43.2713C155.039 36.523 154.832 30.7349 148.226 27.4899C141.621 24.2448 133.295 28.3839 132.585 34.523C131.876 40.6621 131.166 45.3906 137.546 48.3839Z" fill="#263238"/>
<path d="M59.6528 177.583C60.0876 176.936 60.4068 176.211 60.5947 175.444C60.5947 175.444 62.5851 173.046 68.9019 171.536L69.4608 168.536C69.5509 168.023 69.4882 167.493 69.2813 167.019C69.0745 166.544 68.7336 166.149 68.3054 165.887C68.1862 165.814 68.057 165.761 67.9224 165.728C67.23 165.619 66.5314 165.56 65.8314 165.55C63.4875 165.541 61.1453 165.683 58.8177 165.973L58.849 166.503L63.2444 166.424C64.7451 166.424 63.0623 167.748 61.4737 168.179C59.8851 168.609 58.2149 169.503 58.3342 172.94C58.5288 177.007 58.7737 178.669 59.6528 177.583Z" fill="#2E353A"/>
<path d="M70.5345 171.298C70.5345 171.298 62.4218 173.569 60.5946 175.444C60.5946 175.444 59.4769 172.218 63.6588 169.927C69.0714 166.967 67.9223 165.755 67.9223 165.755C68.7209 165.994 69.4966 166.311 70.2393 166.702C71.6584 167.589 70.5345 171.298 70.5345 171.298Z" fill="#E4897B"/>
<path d="M185.75 198.238C184.997 198.225 184.248 198.357 183.54 198.629C183.54 198.629 180.545 198.258 175.785 193.609L173.129 194.828C172.687 195.043 172.318 195.397 172.073 195.842C171.829 196.286 171.719 196.799 171.76 197.311C171.765 197.456 171.793 197.599 171.842 197.735C172.151 198.399 172.501 199.04 172.891 199.655C174.209 201.699 175.643 203.656 177.186 205.516L177.587 205.192L175.026 201.39C174.165 200.099 176.15 200.814 177.399 201.94C178.649 203.066 180.256 204.039 182.893 201.973C185.932 199.549 187.094 198.371 185.75 198.238Z" fill="#2E353A"/>
<path d="M174.68 192.331C174.68 192.331 181.041 198.106 183.54 198.629C183.54 198.629 181.656 201.424 177.5 199.079C172.125 196.046 171.817 197.755 171.817 197.755C171.554 196.923 171.364 196.067 171.252 195.199C171.133 193.444 174.68 192.331 174.68 192.331Z" fill="#E4897B"/>
<path d="M146.686 58.7083C148.758 60.1984 152.168 74.0129 153.198 74.9004C154.228 75.7878 161.844 71.4765 161.844 71.4765L163.508 75.3838C163.508 75.3838 152.005 82.8076 150.422 81.4103C148.84 80.0129 143.666 65.0659 143.666 65.0659L146.686 58.7083Z" fill="#263238"/>
<path opacity="0.2" d="M146.686 58.7083C148.758 60.1984 152.168 74.0129 153.198 74.9004C154.228 75.7878 161.844 71.4765 161.844 71.4765L163.508 75.3838C163.508 75.3838 152.005 82.8076 150.422 81.4103C148.84 80.0129 143.666 65.0659 143.666 65.0659L146.686 58.7083Z" fill="white"/>
<path d="M104.422 71.9668L112.252 80.3178C112.252 80.3178 136.176 88.9271 142.141 79.7814C142.141 79.7814 139.542 66.0462 132.835 63.6953C126.129 61.3443 104.422 71.9668 104.422 71.9668Z" fill="#263238"/>
<path opacity="0.1" d="M104.422 71.9668L112.252 80.3178C112.252 80.3178 136.176 88.9271 142.141 79.7814C142.141 79.7814 139.542 66.0462 132.835 63.6953C126.129 61.3443 104.422 71.9668 104.422 71.9668Z" fill="white"/>
<path d="M161.426 75.0926L166.167 72.3707L168.402 66.7681C169.333 67.1032 170.245 67.4946 171.133 67.9402C171.447 68.1985 170.129 72.8277 169.796 73.119C169.463 73.4104 167.579 73.6422 167.579 73.6422L163.065 76.6555L161.426 75.0926Z" fill="#E4897B"/>
<path d="M119.814 51.4963C119.814 51.4963 135.342 51.1188 146.688 58.7082C145.381 68.0713 143.048 77.243 139.737 86.0393L116.969 82.0658C116.969 82.0658 119.406 75.2247 116.706 61.536L119.814 51.4963Z" fill="#407BFF"/>
<path opacity="0.6" d="M119.814 51.4963C119.814 51.4963 135.342 51.1188 146.688 58.7082C145.381 68.0713 143.048 77.243 139.737 86.0393L116.969 82.0658C116.969 82.0658 119.406 75.2247 116.706 61.536L119.814 51.4963Z" fill="white"/>
<path d="M126.551 50.7479C129.691 64.8142 115.877 77.4036 105.334 77.5559L102.609 71.4566L113.855 66.5095L119.839 51.4963L126.551 50.7479Z" fill="#263238"/>
<path d="M141.927 55.6357C141.927 55.6357 139.811 75.3046 142.141 79.7814C142.141 79.7814 146.115 72.1059 147.013 59.033C145.479 57.6529 143.766 56.5091 141.927 55.6357Z" fill="#263238"/>
<path opacity="0.3" d="M126.551 50.7479C129.691 64.8142 115.877 77.4036 105.334 77.5559L102.609 71.4566L113.855 66.5095L119.839 51.4963L126.551 50.7479Z" fill="white"/>
<path opacity="0.3" d="M141.927 55.6357C141.927 55.6357 139.811 75.3046 142.141 79.7814C142.141 79.7814 146.115 72.1059 147.013 59.033C145.479 57.6529 143.766 56.5091 141.927 55.6357Z" fill="white"/>
<path d="M130.005 50.9404C130.005 50.9404 127.179 49.3643 122.514 52.3908L125.383 54.5364L123.255 57.0729C123.214 61.6339 122.194 66.126 120.272 70.2119C120.272 70.2119 125.371 64.7219 127.091 58.7219C128.812 52.7219 128.033 51.351 130.005 50.9404Z" fill="#263238"/>
<path d="M139.209 53.6024C139.209 53.6024 142.575 54.3706 145.489 58.4633L143.693 58.8143L145.438 62.013L141.043 72.3441C141.043 72.3441 140.578 64.3971 140.798 59.6024C140.838 57.4814 140.285 55.3949 139.209 53.6024Z" fill="#263238"/>
<path opacity="0.2" d="M130.005 50.9404C130.005 50.9404 127.179 49.3643 122.514 52.3908L125.383 54.5364L123.255 57.0729C123.214 61.6339 122.194 66.126 120.272 70.2119C120.272 70.2119 125.371 64.7219 127.091 58.7219C128.812 52.7219 128.033 51.351 130.005 50.9404Z" fill="white"/>
<path opacity="0.2" d="M139.209 53.6024C139.209 53.6024 142.575 54.3706 145.489 58.4633L143.693 58.8143L145.438 62.013L141.043 72.3441C141.043 72.3441 140.578 64.3971 140.798 59.6024C140.838 57.4814 140.285 55.3949 139.209 53.6024Z" fill="white"/>
<path d="M139.629 118.364C135.83 134.881 124.867 156.867 122.726 161.126C121.056 164.477 114.431 165.602 106.4 166.583C90.9095 168.477 70.0439 171.477 70.0439 171.477V166.324C70.0439 166.324 112.177 155.854 112.861 153.463C113.816 150.079 114.94 133.986 115.944 120.443C116.064 118.934 116.177 117.457 116.283 116.033C116.459 113.688 116.623 111.51 116.761 109.629C117.087 105.318 117.288 102.523 117.288 102.523L139.767 85.7878C139.767 85.7878 144.376 97.7084 139.629 118.364Z" fill="#263238"/>
<path opacity="0.2" d="M139.629 118.364C135.83 134.881 124.867 156.867 122.726 161.126C121.056 164.477 114.431 165.602 106.4 166.583C90.9095 168.477 70.0439 171.477 70.0439 171.477V166.324C70.0439 166.324 112.177 155.854 112.861 153.463C113.816 150.079 114.94 133.986 115.944 120.443C116.064 118.934 116.177 117.457 116.283 116.033C116.459 113.688 116.623 111.51 116.761 109.629C117.087 105.318 117.288 102.523 117.288 102.523L139.767 85.7878C139.767 85.7878 144.376 97.7084 139.629 118.364Z" fill="black"/>
<path d="M150.411 138.801C148.289 133.9 130.004 103.351 130.004 103.351L112.033 106.556C117.829 124.483 138.462 142.794 141.96 147.549C145.457 152.304 171.44 194.688 171.44 194.688L174.636 192.304C174.636 192.304 154.907 149.172 150.411 138.801Z" fill="#263238"/>
<path d="M116.95 82.0727L140.597 83.6952L140.164 86.5561C140.164 86.5561 137.652 99.3839 127.674 106.185L112.033 106.556C112.033 106.556 110.206 96.0992 116.366 83.98L116.95 82.0727Z" fill="#263238"/>
<path d="M125.214 82.9005L117.415 82.417L116.825 84.3309L125.038 84.9799L125.214 82.9005Z" fill="black"/>
<path d="M126.192 82.9602L126.017 85.0595L139.686 86.1456L139.812 83.8078L126.192 82.9602Z" fill="black"/>
<path d="M135.97 86.556H135.926L133.414 86.4037C133.219 86.3903 133.037 86.2977 132.905 86.1454C132.841 86.069 132.792 85.9799 132.761 85.8833C132.729 85.7866 132.717 85.6844 132.723 85.5825L132.83 83.801C132.836 83.6992 132.86 83.5996 132.903 83.5078C132.945 83.4161 133.004 83.334 133.076 83.2663C133.148 83.1986 133.233 83.1467 133.324 83.1134C133.416 83.0802 133.512 83.0663 133.609 83.0726L136.12 83.2315C136.218 83.2352 136.313 83.26 136.4 83.3045C136.488 83.3489 136.566 83.412 136.629 83.4898C136.694 83.5657 136.744 83.6548 136.775 83.7515C136.806 83.8483 136.818 83.9507 136.811 84.0527L136.717 85.8076C136.703 86.0045 136.62 86.1889 136.484 86.3248C136.348 86.4606 136.169 86.5384 135.982 86.5427L135.97 86.556ZM133.571 83.7481C133.544 83.748 133.518 83.7589 133.498 83.7787C133.478 83.7984 133.466 83.8253 133.464 83.854L133.364 85.6156C133.366 85.6452 133.378 85.6731 133.398 85.6947C133.417 85.7163 133.443 85.7305 133.471 85.7348L135.982 85.8937C136.01 85.8908 136.035 85.878 136.055 85.8575C136.074 85.837 136.086 85.81 136.089 85.7812L136.183 84.0262C136.189 84.0126 136.192 83.998 136.192 83.9831C136.192 83.9683 136.189 83.9537 136.183 83.9401C136.163 83.9189 136.136 83.905 136.108 83.9004L133.596 83.7481H133.571Z" fill="white"/>
<path d="M136.37 85.2513L135.422 85.1917C135.381 85.1892 135.341 85.1781 135.303 85.1591C135.266 85.1401 135.233 85.1135 135.206 85.0809C135.178 85.0483 135.157 85.0103 135.144 84.9691C135.13 84.9278 135.125 84.8842 135.127 84.8407C135.129 84.7972 135.14 84.7546 135.158 84.7154C135.176 84.6762 135.201 84.6412 135.232 84.6122C135.263 84.5833 135.299 84.5611 135.338 84.5469C135.377 84.5327 135.419 84.5268 135.46 84.5295L136.402 84.5891C136.443 84.5916 136.483 84.6027 136.521 84.6217C136.558 84.6408 136.591 84.6673 136.618 84.6999C136.646 84.7326 136.667 84.7706 136.68 84.8118C136.694 84.853 136.699 84.8966 136.697 84.9401C136.695 84.9833 136.685 85.0257 136.668 85.0649C136.651 85.1041 136.626 85.1392 136.596 85.1682C136.565 85.1972 136.53 85.2195 136.491 85.2338C136.452 85.248 136.411 85.254 136.37 85.2513Z" fill="white"/>
<path d="M137.226 68.5696L143.687 65.0729C144.135 64.3718 144.701 63.7635 145.358 63.2782C146.048 62.9404 152.139 63.9404 152.139 63.9404L149.86 69.0199C149.86 69.0199 145.351 68.7484 144.874 68.3577L138.965 71.6689L137.226 68.5696Z" fill="#E4897B"/>
<path d="M119.812 51.4966C113.865 53.1257 122.801 76.1191 126.719 77.4237C130.637 78.7283 143.202 69.8012 143.202 69.8012L141.041 65.9734C141.041 65.9734 130.059 70.6091 129.055 70.0992C128.05 69.5893 123.994 58.033 123.272 55.9667C122.549 53.9005 119.812 51.4966 119.812 51.4966Z" fill="#263238"/>
<path opacity="0.2" d="M119.812 51.4966C113.865 53.1257 122.801 76.1191 126.719 77.4237C130.637 78.7283 143.202 69.8012 143.202 69.8012L141.041 65.9734C141.041 65.9734 130.059 70.6091 129.055 70.0992C128.05 69.5893 123.994 58.033 123.272 55.9667C122.549 53.9005 119.812 51.4966 119.812 51.4966Z" fill="white"/>
<path opacity="0.6" d="M142.091 69.8011C142.079 69.8592 142.046 69.9101 141.999 69.9434C141.952 69.9767 141.895 69.9898 141.84 69.9799C141.812 69.9743 141.786 69.963 141.762 69.9467C141.739 69.9304 141.718 69.9093 141.703 69.8846C141.687 69.86 141.676 69.8324 141.67 69.8032C141.665 69.7741 141.665 69.7441 141.67 69.715C141.675 69.6854 141.685 69.657 141.7 69.6317C141.715 69.6065 141.735 69.5847 141.759 69.568C141.782 69.5512 141.809 69.5397 141.837 69.5343C141.865 69.5288 141.894 69.5294 141.921 69.5362C141.976 69.5489 142.025 69.5835 142.056 69.6329C142.088 69.6822 142.1 69.7424 142.091 69.8011Z" fill="white"/>
<path opacity="0.6" d="M140.584 70.7812C140.579 70.8104 140.568 70.8382 140.553 70.863C140.537 70.8878 140.517 70.9092 140.494 70.9258C140.471 70.9424 140.445 70.954 140.417 70.9599C140.389 70.9658 140.361 70.9658 140.333 70.9601C140.278 70.9473 140.23 70.9127 140.198 70.8633C140.167 70.814 140.154 70.7538 140.164 70.6952C140.175 70.6363 140.207 70.5844 140.254 70.5509C140.301 70.5174 140.359 70.5049 140.415 70.5164C140.471 70.5278 140.52 70.5621 140.552 70.6118C140.583 70.6614 140.595 70.7224 140.584 70.7812Z" fill="white"/>
<path d="M173.287 57.7617L165.306 79.5762C165.203 79.8238 165.021 80.0255 164.791 80.1465C164.562 80.2674 164.3 80.3 164.05 80.2385L149.439 76.404C149.322 76.3759 149.214 76.3215 149.119 76.2446C149.025 76.1677 148.948 76.0701 148.893 75.9587C148.838 75.8472 148.807 75.7245 148.801 75.599C148.796 75.4735 148.816 75.3482 148.861 75.2319L156.835 53.4173C156.939 53.1705 157.122 52.9696 157.351 52.8488C157.58 52.728 157.842 52.6949 158.091 52.755L172.703 56.5961C172.819 56.6226 172.929 56.6757 173.024 56.7516C173.118 56.8275 173.196 56.9243 173.252 57.0354C173.308 57.1465 173.34 57.269 173.346 57.3945C173.352 57.52 173.331 57.6453 173.287 57.7617Z" fill="#263238"/>
<path opacity="0.3" d="M173.286 57.7614L165.305 79.576C165.202 79.8236 165.02 80.0253 164.79 80.1462C164.561 80.2672 164.299 80.2997 164.049 80.2382L150.103 76.576C149.986 76.5499 149.875 76.4968 149.78 76.4204C149.685 76.3439 149.607 76.2461 149.551 76.134C149.496 76.0219 149.465 75.8983 149.461 75.772C149.456 75.6457 149.478 75.52 149.525 75.4038L157.5 53.5892C157.603 53.3416 157.785 53.1399 158.014 53.019C158.244 52.898 158.506 52.8655 158.756 52.927L172.708 56.5892C172.825 56.6163 172.934 56.6701 173.029 56.7468C173.124 56.8235 173.201 56.9211 173.256 57.0329C173.312 57.1447 173.343 57.2679 173.348 57.3938C173.353 57.5196 173.332 57.6451 173.286 57.7614Z" fill="white"/>
<path opacity="0.3" d="M162.079 65.1125C161.716 65.0266 161.336 65.0785 161.007 65.259C160.677 65.4396 160.418 65.7372 160.276 66.0993C160.211 66.2644 160.18 66.4426 160.186 66.6215C160.193 66.8003 160.236 66.9756 160.313 67.1351C160.39 67.2946 160.499 67.4345 160.633 67.5449C160.766 67.6554 160.921 67.7338 161.086 67.7747C161.449 67.862 161.829 67.8108 162.159 67.6301C162.489 67.4493 162.748 67.1509 162.889 66.788C162.723 66.7481 162.567 66.6703 162.433 66.5601C162.299 66.4498 162.189 66.3098 162.112 66.15C162.035 65.9902 161.992 65.8145 161.986 65.6352C161.98 65.4559 162.012 65.2775 162.079 65.1125Z" fill="white"/>
<path d="M125.521 56.5031C125.521 56.5031 126.444 52.119 128.082 51.2051C129.721 50.2912 137.545 51.7415 140.264 54.4369C141.942 56.2269 143.004 58.5586 143.278 61.0594L139.78 59.4965L134.475 65.8011L130.318 56.9799L125.521 56.5031Z" fill="#407BFF"/>
<path opacity="0.5" d="M125.521 56.5031C125.521 56.5031 126.444 52.119 128.082 51.2051C129.721 50.2912 137.545 51.7415 140.264 54.4369C141.942 56.2269 143.004 58.5586 143.278 61.0594L139.78 59.4965L134.475 65.8011L130.318 56.9799L125.521 56.5031Z" fill="white"/>
<path d="M133.383 51.3839C137.897 51.7481 140.24 55.0395 139.662 57.7349L136.855 58.1455L134.595 64.6356L133.703 57.4236L130.871 55.523C130.871 55.523 129.063 51.0263 133.383 51.3839Z" fill="#E4897B"/>
<path d="M135.047 58.4833C130.739 54.9005 131.242 52.0926 131.242 52.0926C133.358 50.8608 134.764 48.1985 135.273 46.1323C135.439 45.4814 135.552 44.8167 135.612 44.1456L140.604 48.7813C140.005 49.5248 139.457 50.3127 138.965 51.1389C138.596 51.7429 138.299 52.3924 138.08 53.0727C137.452 55.0595 138.4 55.7217 138.4 55.7217C138.274 58.3376 135.047 58.4833 135.047 58.4833Z" fill="#E4897B"/>
<path opacity="0.2" d="M138.864 50.8143C138.574 51.4636 138.363 52.149 138.236 52.854C135.988 51.4169 135.015 48.5758 134.607 46.3043C134.692 45.6461 134.726 44.9816 134.707 44.3176L140.214 48.2911C139.707 49.0969 139.256 49.9401 138.864 50.8143Z" fill="black"/>
<path d="M146.864 33.139C152 35.7549 152.327 39.4966 150.148 45.2648C147.423 52.4834 143.686 56.6887 137.947 51.9271C130.155 45.4635 138.337 28.7946 146.864 33.139Z" fill="#E4897B"/>
<path d="M146.963 43.2711C147.003 44.2894 147.159 45.299 147.428 46.2778C147.176 46.4256 146.89 46.4971 146.602 46.4842C146.314 46.4713 146.035 46.3747 145.795 46.2049L146.963 43.2711Z" fill="#DE5753"/>
<path d="M144.025 41.2315C143.831 41.6819 143.441 41.9335 143.159 41.7945C142.876 41.6554 142.801 41.1852 142.996 40.7348C143.19 40.2845 143.573 40.0328 143.862 40.1653C144.151 40.2977 144.22 40.7547 144.025 41.2315Z" fill="#263238"/>
<path d="M143.73 40.1322L144.823 40.1918C144.823 40.1918 144.006 40.7945 143.73 40.1322Z" fill="#263238"/>
<path d="M149.368 43.6753C149.174 44.1256 148.784 44.3839 148.502 44.2449C148.219 44.1058 148.144 43.6356 148.338 43.1852C148.533 42.7349 148.916 42.4766 149.205 42.6157C149.494 42.7548 149.563 43.225 149.368 43.6753Z" fill="#263238"/>
<path d="M149.074 42.5825L150.167 42.6421C150.167 42.6421 149.35 43.2447 149.074 42.5825Z" fill="#263238"/>
<path d="M145.482 38.2914C145.444 38.2907 145.406 38.2793 145.373 38.2584C145.34 38.2374 145.313 38.2077 145.294 38.1722C145.079 37.7961 144.785 37.4763 144.436 37.2366C144.087 36.9969 143.691 36.8436 143.278 36.788C143.249 36.7881 143.22 36.7819 143.194 36.7697C143.167 36.7576 143.143 36.7398 143.123 36.7175C143.103 36.6951 143.087 36.6687 143.077 36.6399C143.067 36.611 143.063 36.5803 143.065 36.5496C143.065 36.5186 143.071 36.4879 143.082 36.4594C143.094 36.4308 143.11 36.4049 143.131 36.3833C143.152 36.3617 143.177 36.3448 143.205 36.3335C143.232 36.3223 143.261 36.3169 143.291 36.3178C144.773 36.3576 145.639 37.8741 145.677 37.9337C145.707 37.9883 145.715 38.0529 145.699 38.1137C145.684 38.1745 145.647 38.2264 145.595 38.2582C145.561 38.2793 145.522 38.2907 145.482 38.2914Z" fill="#263238"/>
<path d="M151.667 40.1917H151.573C151.253 40.0037 150.896 39.8936 150.53 39.8696C150.164 39.8455 149.797 39.908 149.457 40.0526C149.432 40.0677 149.403 40.0773 149.374 40.0808C149.345 40.0843 149.316 40.0817 149.288 40.0731C149.26 40.0644 149.234 40.05 149.211 40.0305C149.188 40.0111 149.169 39.9871 149.156 39.9599C149.14 39.9333 149.131 39.9036 149.127 39.8727C149.123 39.8419 149.125 39.8105 149.134 39.7807C149.142 39.7508 149.156 39.7231 149.175 39.6992C149.194 39.6753 149.217 39.6559 149.244 39.642C149.644 39.4615 150.078 39.379 150.513 39.4008C150.948 39.4226 151.373 39.5481 151.755 39.7679C151.808 39.7951 151.848 39.8427 151.868 39.9008C151.888 39.9588 151.886 40.0228 151.862 40.0791C151.842 40.1144 151.813 40.1435 151.779 40.1632C151.745 40.183 151.706 40.1928 151.667 40.1917Z" fill="#263238"/>
<path d="M137.075 39.4303C137.075 39.4303 141.515 36.2052 142.727 32.5827C142.727 32.5827 154.914 33.384 150.425 44.5032C150.425 44.5032 155.85 35.3376 147.122 30.5959C138.394 25.8542 132.203 39.5562 134.884 45.9336C134.884 45.9336 134.313 41.4171 137.075 39.4303Z" fill="#263238"/>
<path d="M137.389 40.9733C137.623 40.3214 137.604 39.5984 137.336 38.9612C137.068 38.324 136.572 37.8239 135.957 37.5693C134.281 36.9402 131.945 39.9998 135.524 42.8673C136.039 43.2515 136.629 42.8342 137.389 40.9733Z" fill="#E4897B"/>
<path d="M142.493 27.801C142.493 27.801 146.368 26.8871 148.848 28.1851C151.328 29.4831 151.498 31.4301 151.498 31.4301C152.071 31.3204 152.662 31.3576 153.219 31.5385C153.776 31.7195 154.284 32.0389 154.7 32.4699C156.245 33.9732 157.155 38.2977 155.516 42.9268C153.877 47.556 150.053 46.9003 150.053 46.9003C150.053 46.9003 155.039 40.0328 149.727 35.5692C149.727 35.5692 147.988 33.3705 145.959 34.7017C143.931 36.0328 142.487 41.5891 138.023 37.9732C133.558 34.3573 138.644 28.8672 142.493 27.801Z" fill="#263238"/>
<path d="M144.597 48.6158C144.544 48.6148 144.492 48.5936 144.452 48.5559C144.411 48.5183 144.385 48.4667 144.378 48.4105C144.277 47.5695 142.94 46.6158 142.431 46.3244C142.38 46.2925 142.342 46.241 142.326 46.1807C142.309 46.1203 142.316 46.0556 142.343 45.9999C142.358 45.9733 142.377 45.9499 142.4 45.9311C142.423 45.9124 142.449 45.8986 142.477 45.8906C142.505 45.8826 142.534 45.8805 142.563 45.8845C142.592 45.8885 142.62 45.8984 142.645 45.9138C142.726 45.9602 144.667 47.1059 144.817 48.3509C144.825 48.4122 144.809 48.4741 144.774 48.5235C144.739 48.5729 144.687 48.606 144.629 48.6158H144.597Z" fill="#263238"/>
<path d="M142.876 28.6687C142.876 28.6687 140.183 19.2382 134.33 21.9534C128.478 24.6687 125.634 31.4832 120.899 27.5097C116.165 23.5362 113.992 28.6885 111.694 30.2581C109.396 31.8276 105.327 29.47 106.413 27.5097C106.413 27.5097 103.431 29.9137 108.718 32.4435C114.005 34.9733 116.598 29.6885 118.281 31.6885C119.964 33.6885 125.923 37.6687 129.062 34.7945C129.945 33.9741 131.021 33.4213 132.178 33.1951C133.334 32.9688 134.528 33.0776 135.63 33.5097L142.876 28.6687Z" fill="#263238"/>
<path d="M127.06 37.4434C126.654 37.4425 126.252 37.3639 125.873 37.2116C124.743 36.7392 123.638 36.202 122.564 35.6023C120.228 34.3573 118.018 33.1785 116.787 34.205C116.758 34.2353 116.718 34.2523 116.677 34.2523C116.636 34.2523 116.596 34.2353 116.567 34.205C116.552 34.1901 116.54 34.1722 116.532 34.1522C116.524 34.1323 116.52 34.1108 116.52 34.0891C116.52 34.0674 116.524 34.0459 116.532 34.0259C116.54 34.006 116.552 33.9881 116.567 33.9732C117.955 32.8209 120.253 34.0461 122.677 35.3374C123.743 35.9336 124.839 36.4686 125.961 36.9401C128.008 37.7414 129.954 36.0129 131.675 34.4831C132.931 33.3838 134.073 32.3507 135.166 32.3176C135.186 32.3167 135.207 32.3201 135.226 32.3276C135.246 32.3351 135.264 32.3466 135.279 32.3614C135.294 32.3761 135.306 32.3939 135.315 32.4137C135.323 32.4334 135.328 32.4548 135.329 32.4765C135.329 32.5211 135.313 32.5639 135.284 32.596C135.254 32.6281 135.214 32.647 135.172 32.6487C134.193 32.6818 133.069 33.6752 131.882 34.7348C130.444 35.9732 128.818 37.4434 127.06 37.4434Z" fill="#263238"/>
<path d="M110.539 29.1587C110.142 29.1582 109.756 29.021 109.44 28.768C109.423 28.756 109.407 28.7404 109.396 28.7219C109.384 28.7035 109.376 28.6827 109.373 28.6608C109.369 28.639 109.37 28.6167 109.375 28.5952C109.38 28.5737 109.39 28.5536 109.403 28.5362C109.426 28.5019 109.462 28.4786 109.502 28.4712C109.541 28.4638 109.582 28.4728 109.616 28.4964C110.972 29.5097 112.417 27.9865 113.823 26.5097C114.815 25.4633 115.751 24.4766 116.667 24.3574C117.584 24.2382 118.727 24.8739 120.083 25.6819C122.168 27.1189 124.525 28.0591 126.99 28.4368C127.032 28.4412 127.07 28.4629 127.097 28.497C127.123 28.5312 127.136 28.575 127.132 28.619C127.127 28.6629 127.107 28.7032 127.075 28.7312C127.042 28.7591 127.001 28.7723 126.959 28.768C124.444 28.3845 122.038 27.4286 119.908 25.9666C118.608 25.1653 117.578 24.5362 116.693 24.6421C115.807 24.7481 114.985 25.6951 114.03 26.7017C112.95 27.8938 111.745 29.1587 110.539 29.1587Z" fill="#263238"/>
<path d="M141.044 40.8609C140.37 40.8318 139.712 40.6295 139.129 40.2715C139.111 40.26 139.095 40.2448 139.083 40.2268C139.071 40.2088 139.062 40.1884 139.057 40.1668C139.052 40.1452 139.052 40.1228 139.056 40.101C139.059 40.0791 139.067 40.0583 139.079 40.0397C139.089 40.0215 139.104 40.0058 139.12 39.9935C139.137 39.9812 139.156 39.9727 139.176 39.9684C139.196 39.964 139.216 39.964 139.236 39.9683C139.256 39.9726 139.275 39.9811 139.292 39.9933C139.386 40.0529 141.553 41.4503 142.758 39.5298C145.86 34.5563 146.971 33.3377 148.861 34.1986C148.881 34.2065 148.899 34.2186 148.914 34.2341C148.929 34.2497 148.94 34.2683 148.948 34.2889C148.956 34.3095 148.959 34.3315 148.958 34.3536C148.958 34.3757 148.952 34.3973 148.943 34.4172C148.925 34.4565 148.894 34.4873 148.856 34.5033C148.817 34.5193 148.774 34.5193 148.736 34.5033C147.141 33.7748 146.18 34.649 143.016 39.7152C142.811 40.0716 142.521 40.3651 142.175 40.5662C141.829 40.7673 141.439 40.8689 141.044 40.8609Z" fill="#263238"/>
<path d="M11.5332 129.602L24.0538 125.046C24.0538 125.046 34.9167 137.291 43.5756 137.291L29.2215 144.563C29.2215 144.563 13.9193 138.384 11.5332 129.602Z" fill="#68B1A9"/>
<path d="M59.5695 83.7219C59.5695 83.7219 75.8952 81.7351 87.4927 91.2186L81.5213 98.9735C81.5213 98.9735 67.1735 92.5762 54.6152 96.3245L59.5695 83.7219Z" fill="#68B1A9"/>
<path opacity="0.6" d="M169.711 74.6256L182.54 69.3276C182.54 69.3276 197.082 78.3011 206.325 79.7846L190.338 83.0958C190.338 83.0958 173.039 79.5064 169.711 74.6256Z" fill="#68B1A9"/>
<path opacity="0.8" d="M223.09 155.954L238.838 158.789C238.838 158.789 225.168 168.378 213.64 170.113L201.213 165.868C201.213 165.868 216.195 164.219 223.09 155.954Z" fill="#68B1A9"/>
<path opacity="0.4" d="M89.9097 188.076C89.9097 188.076 97.476 179.672 116.37 177.48L127.823 182.923C127.823 182.923 110.738 186.837 102.958 190.645L89.9097 188.076Z" fill="#68B1A9"/>
</svg>
